<svg version="1.0" xmlns="http://www.w3.org/2000/svg" width="700pt" height="700pt" viewBox="0 0 700 700"><g transform="translate(0.000000,700.000000) scale(0.100000,-0.100000)" fill="#000" stroke="none"><path d="M3269 6775c-2-1-35-5-74-9-368-30-765-141-1125-313-410-197-814-513-1090-853-25-30-47-57-50-60-17-17-106-139-157-215-268-401-449-870-518-1340-4-22-8-51-11-65-2-14-7-61-10-105-3-44-8-98-9-120-7-75-6-2970 1-3015 31-217 216-409 434-450 29-6 202-10 384-10 371 0 412 5 525 65 104 56 189 144 236 248 57 123 55 94 52 1077-2 867-3 907-21 960-11 30-30 72-43 92-13 21-23 40-23 43 0 16-91 110-140 144-135 94-184 103-559 105l-306 1 1 315c0 282 7 488 18 545 2 11 7 47 11 80 30 273 162 661 317 938 40 72 154 250 182 284 8 10 43 54 78 98 70 90 282 306 373 381 267 222 556 383 9e2 502 125 44 393 103 520 116 28 3 79 8 115 12 81 8 367 8 438 0 28-3 76-9 105-12 473-51 947-244 1350-551 90-69 357-324 412-393 11-14 38-48 61-75 88-108 2e2-281 283-440 130-246 245-606 276-860 4-27 8-61 10-74 16-98 29-840 15-860-3-4-124-8-270-8-312 0-361-3-416-19-199-59-342-210-389-409-12-50-14-212-12-965 2-896 2-906 23-960 61-159 141-251 276-319 114-58 163-63 564-59 363 4 370 5 464 50 159 78 272 230 305 413 6 36 6 2918 0 3025-3 41-7 93-9 115-3 22-8 63-11 90-6 46-29 186-40 245-75 387-256 817-488 1165-33 50-70 102-81 117-12 14-32 41-46 59-335 445-843 831-1371 1042-133 53-344 122-435 142-11 2-50 11-89 19-84 19-222 43-290 51-27 3-70 8-95 11-48 7-545 15-551 9z"/><path d="M3255 5813c-9-21-83-213-165-428-81-214-225-592-320-840-95-247-219-574-277-725-134-355-151-398-168-440-36-88-135-352-135-358 0-4 90-8 199-8h2e2l15 40c8 23 66 185 129 361l113 320 640 3 640 2 99-277c54-153 109-307 123-343 13-36 26-74 29-86 5-20 10-21 201-20 190 1 197 2 194 21-1 11-7 29-11 40-13 28-172 443-227 590-12 33-124 328-249 655-125 327-258 676-295 775-83 218-215 567-234 615-8 19-23 58-33 85l-19 50-217 3-217 2-15-37zm309-559c41-109 145-390 231-624 86-234 160-434 165-445 14-28 40-106 40-116 0-5-228-9-515-9-332 0-515 4-515 10 0 5 29 87 64 182 87 233 253 683 310 843 26 72 52 139 57 150 5 11 21 54 35 95 40 114 44 123 49 118 3-3 38-94 79-204z"/></g></svg>